<svg viewBox="0 0 199.86 27.31" xmlns="http://www.w3.org/2000/svg"><g fill="#fff" transform="translate(-81.14 -36.72)"><path d="m212.1 36.85c3.86-.53 6.94.62 9.19 3.93 1.54 2.27 1.58 6.38-.36 8.29-.73.72-.63 1.37 0 2.18 3.6 4.89.41 10.64-4.31 12.2-2.7.9-5.36.42-8 .45a2.47 2.47 0 0 1 -2.16-2.2c-.22-1.26.59-1.94 1.59-2.43 1.47-.72 3.05-.41 4.59-.46h2.16a2.76 2.76 0 0 0 3-3 3.25 3.25 0 0 0 -3.1-3c-1.83 0-3.66 0-5.49 0a2.5 2.5 0 0 1 -2.73-2.46c0-1.48.81-2.18 2.65-2.23a40.72 40.72 0 0 0 5.63-.23c1.84-.29 3.07-1.49 3-3.12a3.6 3.6 0 0 0 -3.39-3.23c-1.72 0-3.44 0-5.16 0s-2.8-1-2.76-2.39 1.11-2.22 2.74-2.22z"/><path d="m173 36.85c6.7 0 11 6 8.67 12.2a8.7 8.7 0 0 1 -3.72 4.14c-1.2.76-1 1.22-.25 2 1.54 1.53 3.07 3 4.61 4.56a2 2 0 0 1 .26 3.07 2 2 0 0 1 -3.19.28c-3.34-3.16-6.56-6.45-9.83-9.69a1.77 1.77 0 0 1 -.33-2 2.44 2.44 0 0 1 2.18-1.56 24.53 24.53 0 0 0 3.3-.3 2.86 2.86 0 0 0 2.43-2.17c.39-1.45.79-2.91-.47-4.2a4.68 4.68 0 0 0 -3.66-1.74c-2.87.05-4-.69-3.94-2.36s1.16-2.21 3.94-2.23z"/><path d="m81.17 61.41c-.13-.75.36-1.21.85-1.68l22.9-22.23a1.94 1.94 0 0 1 2.93-.09 2.08 2.08 0 0 1 .39 3.09 9.25 9.25 0 0 1 -.92 1q-10.63 10.37-21.27 20.78c-2.06 2-2.83 2.07-4.35.48a1.6 1.6 0 0 1 -.53-1.35z"/><path d="m235.72 50.27c0-3.43 0-6.86 0-10.3a2.94 2.94 0 0 1 2.51-3.13c1.46-.06 2.48 1.12 2.49 3.08q0 10.45 0 20.93c0 1.51-1.31 3.09-2.47 3.12s-2.52-1.66-2.53-3.23c-.02-3.49 0-6.98 0-10.47z"/><path d="m127.06 50.47v9.29c0 .6-.13 1.2-.14 1.81 0 1.51-1.17 2-2.3 2.18s-1.66-.9-2.12-1.75a4.48 4.48 0 0 1 -.35-2.1c0-6.42 0-12.83 0-19.25a8.11 8.11 0 0 1 .26-2 2.26 2.26 0 0 1 2.39-1.83c1.27 0 1.76.9 2 1.86a14 14 0 0 1 .26 3.12c.02 2.91 0 5.79 0 8.67z"/><path d="m267.19 36.85h11c1.69 0 2.84.94 2.83 2.31a2.46 2.46 0 0 1 -2.7 2.29q-11.15 0-22.3 0a2.48 2.48 0 0 1 -2.62-2.45 2.54 2.54 0 0 1 2.6-2.15z"/><path d="m201.43 50.27v10.6c0 1.53-1.28 3.12-2.42 3.06s-2.3-1.64-2.31-3.08c0-7.07 0-14.14 0-21.21a2.51 2.51 0 0 1 2.4-2.79c1.43 0 2.31 1.06 2.31 2.81.03 3.54.02 7.07.02 10.61z"/><path d="m269.67 55v5.8c0 1.49-1.31 3.1-2.46 3.13s-2.46-1.48-2.49-2.92c-.06-4.09-.07-8.18 0-12.27a2.43 2.43 0 0 1 2.39-2.64 2.9 2.9 0 0 1 2.55 2.92c.02 2.04.01 4.03.01 5.98z"/><path d="m138.66 64h-3.66c-1.7 0-3.13-1.07-3.23-2.41a2.93 2.93 0 0 1 2.95-2.76c2.76-.1 5.54-.1 8.3 0a2.56 2.56 0 0 1 2.79 2.79c-.07 1.42-1.25 2.37-3 2.39-1.38-.01-2.76-.01-4.15-.01z"/><path d="m86.11 43.79a23.26 23.26 0 0 1 -.25 4.79c-.31 1.33-1 2.28-2.5 2.13a2.26 2.26 0 0 1 -2.19-2.43c0-3-.06-6 0-9a2.3 2.3 0 0 1 2.19-2.45c1.46-.14 2.18.8 2.49 2.13a23.3 23.3 0 0 1 .26 4.83z"/><path d="m138.8 41.46c-1.44 0-2.88 0-4.33 0a2.45 2.45 0 0 1 -2.68-2.3 2.42 2.42 0 0 1 2.66-2.3h9c1.64 0 2.38.74 2.38 2.28s-.69 2.28-2.35 2.32-3.13 0-4.68 0z"/><path d="m99.49 57.08a2.27 2.27 0 0 1 1.35-2.1 2.05 2.05 0 0 1 2.48.21c1.66 1.55 3.3 3.13 4.85 4.79a2 2 0 0 1 -.12 3c-.82.8-1.67 1.41-2.84.45a48.59 48.59 0 0 1 -5.33-5.21 1.48 1.48 0 0 1 -.39-1.14z"/><path d="m164.42 50.44v10.12c0 1.94-1.12 3.48-2.51 3.48s-2.78-1.93-2.79-3.61c0-6.09 0-12.17 0-18.25 0-1.34-.31-2.72.56-4a2.45 2.45 0 0 1 2.92-1.29 2.48 2.48 0 0 1 1.83 2.62c-.05 3.63-.01 7.28-.01 10.93z"/><path d="m136.68 52.75c-1.35-.1-3.07.47-4.33-1.17a2.07 2.07 0 0 1 1.16-3.44 28.87 28.87 0 0 1 6.89 0 2.1 2.1 0 0 1 1.89 2.18 2.79 2.79 0 0 1 -2.55 2.42 23.63 23.63 0 0 1 -3.06.01z"/><path d="m163.76 50.34v10.63c0 1.32-.35 2.12-1.85 2.12s-1.85-.84-1.84-2.14q0-10.71 0-21.43c0-1.27.42-2.19 1.77-2.34 1.16-.12 1.9.83 1.91 2.37.02 3.59.01 7.19.01 10.79z"/></g></svg>