<svg height="47.551" viewBox="0 0 38.635 47.551" width="38.635" xmlns="http://www.w3.org/2000/svg"><path d="m7.471 16.788v29.719a2.981 2.981 0 0 0 2.972 2.972h26.747a2.981 2.981 0 0 0 2.972-2.972v-29.719zm8.916 26.747h-2.973v-20.8h2.972zm5.944 0h-2.973v-20.8h2.972zm5.944 0h-2.975v-20.8h2.972zm5.944 0h-2.973v-20.8h2.972zm6.681-35.663h-9.654v-3.715a2.235 2.235 0 0 0 -2.229-2.229h-10.4a2.235 2.235 0 0 0 -2.229 2.229v3.715h-9.66a2.235 2.235 0 0 0 -2.228 2.228v3.715h38.634v-3.715a2.235 2.235 0 0 0 -2.234-2.228zm-12.631 0h-8.911v-2.935h8.916v2.935z" fill="#525252" transform="translate(-4.499 -1.928)"/></svg>