<svg id="Layer_1" data-name="Layer 1" xmlns="http://www.w3.org/2000/svg" viewBox="0 0 55.79 55.79"><defs><style>.cls-1{fill:#7d7380;}.cls-2{fill:#f8f8f6;}</style></defs><title>camerabutton</title><circle id="Ellipse_3-2" data-name="Ellipse 3-2" class="cls-1" cx="27.9" cy="27.9" r="23.91"/><path id="Icon_material-camera" data-name="Icon material-camera" class="cls-1" d="M23.24,25.13l9-15.6a19.51,19.51,0,0,0-4.1-.45,18.86,18.86,0,0,0-11.93,4.25l6.91,12Zm22.92-2.84a19,19,0,0,0-11.32-12l-6.91,12Zm.5,1.9H32.51l.55.94,9,15.57A18.69,18.69,0,0,0,47,28a19.22,19.22,0,0,0-.37-3.78ZM21.62,28,14.25,15.21A18.84,18.84,0,0,0,9.27,28a19.06,19.06,0,0,0,.38,3.77H23.79L21.62,28ZM10.14,33.62a18.92,18.92,0,0,0,11.33,12l6.91-12Zm21.28,0L24.06,46.39a20.09,20.09,0,0,0,4.09.45,18.89,18.89,0,0,0,11.94-4.25l-6.91-12-1.76,3Z" transform="translate(-0.21 -0.11)"/><g id="Component_2_1" data-name="Component 2 1"><circle id="Ellipse_1-2" data-name="Ellipse 1-2" class="cls-2" cx="27.9" cy="27.9" r="27.9"/><circle id="Ellipse_3-2-2" data-name="Ellipse 3-2" class="cls-1" cx="27.9" cy="27.9" r="23.91"/><circle id="Ellipse_2-2" data-name="Ellipse 2-2" class="cls-2" cx="27.9" cy="27.9" r="21.92"/><path id="Icon_material-camera-2" data-name="Icon material-camera" class="cls-1" d="M23.24,25.13l9-15.6a19.51,19.51,0,0,0-4.1-.45,18.86,18.86,0,0,0-11.93,4.25l6.91,12Zm22.92-2.84a19,19,0,0,0-11.32-12l-6.91,12Zm.5,1.9H32.51l.55.94,9,15.57A18.69,18.69,0,0,0,47,28a19.22,19.22,0,0,0-.37-3.78ZM21.62,28,14.25,15.21A18.84,18.84,0,0,0,9.27,28a19.06,19.06,0,0,0,.38,3.77H23.79L21.62,28ZM10.14,33.62a18.92,18.92,0,0,0,11.33,12l6.91-12Zm21.28,0L24.06,46.39a20.09,20.09,0,0,0,4.09.45,18.89,18.89,0,0,0,11.94-4.25l-6.91-12-1.76,3Z" transform="translate(-0.21 -0.11)"/></g></svg>