<svg viewBox="0 0 55.79 55.79" xmlns="http://www.w3.org/2000/svg"><circle cx="27.9" cy="27.9" fill="#7d7380" r="23.91"/><path d="m23.24 25.13 9-15.6a19.51 19.51 0 0 0 -4.1-.45 18.86 18.86 0 0 0 -11.93 4.25l6.91 12zm22.92-2.84a19 19 0 0 0 -11.32-12l-6.91 12zm.5 1.9h-14.15l.55.94 9 15.57a18.69 18.69 0 0 0 4.94-12.7 19.22 19.22 0 0 0 -.37-3.78zm-25.04 3.81-7.37-12.79a18.84 18.84 0 0 0 -4.98 12.79 19.06 19.06 0 0 0 .38 3.77h14.14zm-11.48 5.62a18.92 18.92 0 0 0 11.33 12l6.91-12zm21.28 0-7.36 12.77a20.09 20.09 0 0 0 4.09.45 18.89 18.89 0 0 0 11.94-4.25l-6.91-12-1.76 3z" fill="#7d7380" transform="translate(-.21 -.11)"/><circle cx="27.9" cy="27.9" fill="#f8f8f6" r="27.9"/><circle cx="27.9" cy="27.9" fill="#7d7380" r="23.91"/><circle cx="27.9" cy="27.9" fill="#f8f8f6" r="21.92"/><path d="m23.24 25.13 9-15.6a19.51 19.51 0 0 0 -4.1-.45 18.86 18.86 0 0 0 -11.93 4.25l6.91 12zm22.92-2.84a19 19 0 0 0 -11.32-12l-6.91 12zm.5 1.9h-14.15l.55.94 9 15.57a18.69 18.69 0 0 0 4.94-12.7 19.22 19.22 0 0 0 -.37-3.78zm-25.04 3.81-7.37-12.79a18.84 18.84 0 0 0 -4.98 12.79 19.06 19.06 0 0 0 .38 3.77h14.14zm-11.48 5.62a18.92 18.92 0 0 0 11.33 12l6.91-12zm21.28 0-7.36 12.77a20.09 20.09 0 0 0 4.09.45 18.89 18.89 0 0 0 11.94-4.25l-6.91-12-1.76 3z" fill="#7d7380" transform="translate(-.21 -.11)"/></svg>