<svg height="35.998" viewBox="0 0 45 35.998" width="45" xmlns="http://www.w3.org/2000/svg"><path d="m35.438 24.75h-25.847a.564.564 0 0 0 -.562.563l-.007 3.375a.564.564 0 0 0 .563.563h25.853a.564.564 0 0 0 .562-.563v-3.375a.564.564 0 0 0 -.562-.563zm0 6.75h-25.868a.564.564 0 0 0 -.562.563l-.008 3.375a.564.564 0 0 0 .563.562h25.875a.564.564 0 0 0 .562-.562v-3.375a.564.564 0 0 0 -.562-.563zm0-13.5h-25.838a.564.564 0 0 0 -.562.563l-.007 3.375a.564.564 0 0 0 .569.562h25.84a.564.564 0 0 0 .56-.562v-3.375a.564.564 0 0 0 -.562-.563zm7.488-9.773-19.132-7.967a3.386 3.386 0 0 0 -2.594 0l-19.126 7.967a3.383 3.383 0 0 0 -2.074 3.114v24.1a.564.564 0 0 0 .563.559h5.625a.564.564 0 0 0 .563-.562v-17.438a2.275 2.275 0 0 1 2.292-2.25h26.915a2.275 2.275 0 0 1 2.292 2.25v17.438a.564.564 0 0 0 .563.563h5.625a.564.564 0 0 0 .562-.563v-24.1a3.383 3.383 0 0 0 -2.074-3.111z" fill="#df948c" transform="translate(0 -.002)"/></svg>