<svg height="36" viewBox="0 0 31.499 36" width="31.499" xmlns="http://www.w3.org/2000/svg"><path d="m7.875 9a5.609 5.609 0 0 1 2.813-4.845v13.845h3.375v-14.625h3.375v14.625h3.375v-13.845a5.609 5.609 0 0 1 2.812 4.845v9h3.375v-9a9 9 0 0 0 -9-9h-4.5a9 9 0 0 0 -9 9v9h3.375zm23.505 15.04-.752-2.25a2.253 2.253 0 0 0 -2.138-1.54h-25.49a2.253 2.253 0 0 0 -2.135 1.54l-.753 2.25a2.256 2.256 0 0 0 2.138 2.96v7.875a1.128 1.128 0 0 0 1.125 1.125h2.25a1.128 1.128 0 0 0 1.125-1.125v-7.875h18v7.875a1.128 1.128 0 0 0 1.125 1.125h2.25a1.128 1.128 0 0 0 1.125-1.125v-7.875a2.249 2.249 0 0 0 2.13-2.96z" fill="#df948c" transform="translate(.002)"/></svg>