<svg xmlns="http://www.w3.org/2000/svg" width="31.499" height="36" viewBox="0 0 31.499 36">
  <path id="Icon_awesome-chair" data-name="Icon awesome-chair" d="M7.875,9a5.609,5.609,0,0,1,2.813-4.845V18h3.375V3.375h3.375V18h3.375V4.155A5.609,5.609,0,0,1,23.625,9v9H27V9a9,9,0,0,0-9-9H13.5a9,9,0,0,0-9,9v9H7.875ZM31.38,24.04l-.752-2.25a2.253,2.253,0,0,0-2.138-1.54H3A2.253,2.253,0,0,0,.865,21.79L.112,24.04A2.256,2.256,0,0,0,2.25,27v7.875A1.128,1.128,0,0,0,3.375,36h2.25A1.128,1.128,0,0,0,6.75,34.875V27h18v7.875A1.128,1.128,0,0,0,25.875,36h2.25a1.128,1.128,0,0,0,1.125-1.125V27A2.249,2.249,0,0,0,31.38,24.04Z" transform="translate(0.002)" fill="#df948c"/>
</svg>
