<svg xmlns="http://www.w3.org/2000/svg" width="72" height="72" viewBox="0 0 72 72">
  <path id="Icon_awesome-arrow-alt-circle-down" data-name="Icon awesome-arrow-alt-circle-down" d="M72.563,36.562a36,36,0,1,1-36-36A35.994,35.994,0,0,1,72.563,36.562ZM30.175,19.724V36.562H19.883a1.743,1.743,0,0,0-1.234,2.976L35.329,56.13a1.726,1.726,0,0,0,2.453,0L54.461,39.538a1.742,1.742,0,0,0-1.234-2.976H42.95V19.724a1.747,1.747,0,0,0-1.742-1.742h-9.29A1.747,1.747,0,0,0,30.175,19.724Z" transform="translate(-0.563 -0.563)" fill="#f8f8f6"/>
</svg>
