<svg xmlns="http://www.w3.org/2000/svg" width="27" height="27" viewBox="0 0 27 27">
  <path id="Icon_awesome-arrow-alt-circle-down" data-name="Icon awesome-arrow-alt-circle-down" d="M27.563,14.063a13.5,13.5,0,1,1-13.5-13.5A13.5,13.5,0,0,1,27.563,14.063Zm-15.9-6.315v6.315H7.808a.654.654,0,0,0-.463,1.116L13.6,21.4a.647.647,0,0,0,.92,0l6.255-6.222a.653.653,0,0,0-.463-1.116H16.458V7.748a.655.655,0,0,0-.653-.653H12.321A.655.655,0,0,0,11.667,7.748Z" transform="translate(-0.563 -0.563)" fill="#df948c"/>
</svg>
