<?xml version="1.0" encoding="utf-8"?>
<!-- Generator: Adobe Illustrator 24.1.2, SVG Export Plug-In . SVG Version: 6.00 Build 0)  -->
<svg version="1.1" id="Layer_1" xmlns="http://www.w3.org/2000/svg" xmlns:xlink="http://www.w3.org/1999/xlink" x="0px" y="0px"
	 viewBox="0 0 30 30" style="enable-background:new 0 0 30 30;" xml:space="preserve">
<style type="text/css">
	.st0{fill:none;stroke:#FFFFFF;stroke-width:2;stroke-miterlimit:10;}
	.st1{fill:#FFFFFF;}
</style>
<g transform="translate(-1.5 -1.5)">
	<path class="st0" d="M30.1,16.5c0,7.5-6.1,13.6-13.6,13.6S2.9,24,2.9,16.5S9,2.9,16.5,2.9S30.1,9,30.1,16.5z"/>
</g>
<path class="st1" d="M14.4,20.8l-7.2-7.2c-0.3-0.3-0.3-0.9,0-1.3c0,0,0,0,0,0L8,11.5c0.3-0.3,0.9-0.3,1.3,0l5.7,5.7l5.7-5.7
	c0.3-0.3,0.9-0.3,1.3,0l0.8,0.8c0.3,0.3,0.3,0.9,0,1.3c0,0,0,0,0,0l-7.2,7.2C15.3,21.1,14.7,21.1,14.4,20.8z"/>
</svg>
