<svg height="35.511" viewBox="0 0 35.518 35.511" width="35.518" xmlns="http://www.w3.org/2000/svg"><path d="m17.758 10.889a9.1 9.1 0 1 0 9.1 9.1 9.09 9.09 0 0 0 -9.1-9.1zm0 15.024a5.919 5.919 0 1 1 5.919-5.919 5.93 5.93 0 0 1 -5.919 5.918zm11.6-15.4a2.124 2.124 0 1 1 -2.124-2.124 2.119 2.119 0 0 1 2.124 2.127zm6.03 2.155c-.135-2.845-.784-5.364-2.868-7.44s-4.6-2.726-7.44-2.868c-2.932-.166-11.719-.166-14.651 0-2.837.135-5.356.784-7.44 2.86s-2.727 4.599-2.869 7.443c-.167 2.937-.167 11.72 0 14.652.135 2.845.784 5.364 2.868 7.44s4.6 2.726 7.44 2.868c2.932.166 11.719.166 14.651 0 2.845-.135 5.364-.784 7.44-2.868s2.726-4.6 2.868-7.44c.166-2.932.166-11.711 0-14.643zm-3.788 17.792a5.993 5.993 0 0 1 -3.376 3.376c-2.338.927-7.884.713-10.467.713s-8.138.206-10.467-.713a5.993 5.993 0 0 1 -3.375-3.376c-.927-2.337-.715-7.884-.715-10.467s-.2-8.138.715-10.467a5.993 5.993 0 0 1 3.376-3.376c2.338-.927 7.884-.713 10.467-.713s8.138-.206 10.467.713a5.993 5.993 0 0 1 3.375 3.376c.927 2.338.713 7.884.713 10.467s.215 8.138-.713 10.467z" fill="#f8f8f6" transform="translate(.005 -2.238)"/></svg>