<svg viewBox="0 0 289.07 40.44" xmlns="http://www.w3.org/2000/svg"><g fill="#fff"><path d="m60 .18a3.19 3.19 0 0 0 -3.38 3v34.2a3.41 3.41 0 0 0 6.76 0v-34.22a3.2 3.2 0 0 0 -3.38-2.98z"/><path d="m96.52 3.59a3.19 3.19 0 0 0 -3-3.38h-21.37a3.19 3.19 0 0 0 -3 3.38 3.19 3.19 0 0 0 3 3.38h21.39a3.19 3.19 0 0 0 2.98-3.38z"/><path d="m86.65 20.23a3.19 3.19 0 0 0 -3-3.38h-11.51a3.19 3.19 0 0 0 -3 3.38 3.19 3.19 0 0 0 3 3.38h11.53a3.19 3.19 0 0 0 2.98-3.38z"/><path d="m96.52 36.81a3.2 3.2 0 0 0 -3-3.38h-21.37a3.2 3.2 0 0 0 -3 3.38 3.2 3.2 0 0 0 3 3.39h21.39a3.2 3.2 0 0 0 2.98-3.39z"/><path d="m3.58.15a3.2 3.2 0 0 0 -3.38 3v14.77a3.19 3.19 0 0 0 3.38 3 3.19 3.19 0 0 0 3.38-3h.04v-14.79a3.2 3.2 0 0 0 -3.42-2.98z"/><path d="m38.85 39.13a3.21 3.21 0 0 0 .29-4.5l-6.48-6.47a3.41 3.41 0 0 0 -4.78 4.78l6.48 6.48a3.19 3.19 0 0 0 4.49-.29z"/><path d="m38.85 1.21a3.21 3.21 0 0 0 -4.5-.29l-33.55 33.56a3.2 3.2 0 0 0 .28 4.52 3.21 3.21 0 0 0 4.5.29l33.56-33.58a3.21 3.21 0 0 0 -.29-4.5z"/><path d="m116.14.18a3.2 3.2 0 0 0 -3.39 3v34.2a3.41 3.41 0 0 0 6.77 0v-34.22a3.2 3.2 0 0 0 -3.38-2.98z"/><path d="m172.77.25a3.19 3.19 0 0 0 -3.38 3v34.21a3.41 3.41 0 0 0 6.76 0v-34.23a3.19 3.19 0 0 0 -3.38-2.98z"/><path d="m198 40.29c6.26 0 11.42-5.37 11.42-12a10.33 10.33 0 0 0 -3.84-8.2 10.38 10.38 0 0 0 3.59-8c0-6.62-5.15-12-11.42-12h-13.09a3.08 3.08 0 0 0 -3 3.17 3.08 3.08 0 0 0 3 3.17h11.79a5.74 5.74 0 0 1 6.05 5.27c.05 1.43-.83 5.22-6.26 5.22l-11.33.08a3.19 3.19 0 0 0 -3 3.35 3.19 3.19 0 0 0 3 3.35h11.33c6.47 0 6.55 3.68 6.51 5a5.74 5.74 0 0 1 -6.05 5.3h-11.79a3.18 3.18 0 0 0 0 6.34h13.09z"/><path d="m229.61 0a3.2 3.2 0 0 0 -3.38 3v34.21a3.41 3.41 0 0 0 6.77 0v-34.21a3.2 3.2 0 0 0 -3.39-3z"/><path d="m289.07 3.65a3.2 3.2 0 0 0 -3-3.38h-33.57a3.19 3.19 0 0 0 -3 3.38 3.19 3.19 0 0 0 3 3.38h33.59a3.2 3.2 0 0 0 2.98-3.38z"/><path d="m269.29 39.92a3.2 3.2 0 0 0 3.39-3v-23a3.41 3.41 0 0 0 -6.77 0v23a3.2 3.2 0 0 0 3.38 3z"/><path d="m152.63 36.31a2.73 2.73 0 0 0 -.77-1.64l-.47-.33-11.81-8.28a30.86 30.86 0 0 0 5-.27c5.54-1.34 8.06-6.73 7.95-12.34-.17-7.21-5.18-13.06-11.45-13.06h-12.88a3.24 3.24 0 0 0 -3 3.45 3.24 3.24 0 0 0 3 3.46h11.6a6 6 0 0 1 6 5.74c.06 1.85-.82 5.9-5.33 6.15l-10.72.08a10.34 10.34 0 0 0 -1.54.11h-.06a0 0 0 0 1 0 0 3.54 3.54 0 0 0 -1.91 1 3.32 3.32 0 0 0 -.29 4.49 7.65 7.65 0 0 0 1.57 1.17l19.53 13.57a3.38 3.38 0 0 0 4.5-.29 3.48 3.48 0 0 0 1.08-3.01z"/></g></svg>