<svg height="29.25" viewBox="0 0 29.25 29.25" width="29.25" xmlns="http://www.w3.org/2000/svg"><path d="m8.719 5.625v22.641a.987.987 0 0 1 -.984.984.987.987 0 0 1 -.984-.984v-20.391h-1.126a2.248 2.248 0 0 0 -2.25 2.25v20.25a2.248 2.248 0 0 0 2.25 2.25h24.827a2.174 2.174 0 0 0 2.173-2.173v-24.827a2.248 2.248 0 0 0 -2.25-2.25l-19.547.141a2.015 2.015 0 0 0 -2.109 2.109zm4.641 2.25h5.906a.987.987 0 0 1 .984.984.987.987 0 0 1 -.984.984h-5.907a.987.987 0 0 1 -.984-.984.987.987 0 0 1 .984-.984zm0 11.25h10.406a.987.987 0 0 1 .984.984.987.987 0 0 1 -.984.984h-10.407a.987.987 0 0 1 -.984-.984.987.987 0 0 1 .984-.984zm13.781 7.594h-13.782a.987.987 0 0 1 -.984-.984.987.987 0 0 1 .984-.984h13.782a.987.987 0 0 1 .984.984.987.987 0 0 1 -.984.984zm0-11.25h-13.782a.987.987 0 0 1 -.984-.984.987.987 0 0 1 .984-.984h13.782a.987.987 0 0 1 .984.984.987.987 0 0 1 -.984.984z" fill="#df948c" transform="translate(-3.375 -3.375)"/></svg>