<svg xmlns="http://www.w3.org/2000/svg" width="34.875" height="34.875" viewBox="0 0 34.875 34.875">
  <path id="Icon_awesome-question-circle" data-name="Icon awesome-question-circle" d="M35.438,18A17.438,17.438,0,1,1,18,.563,17.437,17.437,0,0,1,35.438,18ZM18.468,6.328a9.107,9.107,0,0,0-8.195,4.483.845.845,0,0,0,.191,1.143L12.9,13.8a.843.843,0,0,0,1.172-.149c1.256-1.593,2.117-2.517,4.029-2.517,1.436,0,3.213.924,3.213,2.317,0,1.053-.869,1.594-2.288,2.389-1.654.927-3.843,2.081-3.843,4.968v.281a.844.844,0,0,0,.844.844h3.938a.844.844,0,0,0,.844-.844V21c0-2,5.849-2.085,5.849-7.5C26.662,9.422,22.431,6.328,18.468,6.328ZM18,23.766A3.234,3.234,0,1,0,21.234,27,3.238,3.238,0,0,0,18,23.766Z" transform="translate(-0.563 -0.563)" fill="#df948c"/>
</svg>
