<svg height="34.875" viewBox="0 0 34.875 34.875" width="34.875" xmlns="http://www.w3.org/2000/svg"><path d="m35.438 18a17.438 17.438 0 1 1 -17.438-17.437 17.437 17.437 0 0 1 17.438 17.437zm-16.97-11.672a9.107 9.107 0 0 0 -8.195 4.483.845.845 0 0 0 .191 1.143l2.436 1.846a.843.843 0 0 0 1.172-.149c1.256-1.593 2.117-2.517 4.029-2.517 1.436 0 3.213.924 3.213 2.317 0 1.053-.869 1.594-2.288 2.389-1.654.927-3.843 2.081-3.843 4.968v.281a.844.844 0 0 0 .844.844h3.938a.844.844 0 0 0 .844-.844v-.089c0-2 5.849-2.085 5.849-7.5.004-4.078-4.227-7.172-8.19-7.172zm-.468 17.438a3.234 3.234 0 1 0 3.234 3.234 3.238 3.238 0 0 0 -3.234-3.234z" fill="#df948c" transform="translate(-.563 -.563)"/></svg>