<svg height="27" viewBox="0 0 27 27" width="27" xmlns="http://www.w3.org/2000/svg"><path d="m9.733 13.811a.844.844 0 0 1 -1.269.905l-2.149-1.342-2.682 4.293a1.691 1.691 0 0 0 1.43 2.583h2.737a.633.633 0 0 1 .633.633v2.109a.633.633 0 0 1 -.633.633h-2.731a5.066 5.066 0 0 1 -4.293-7.746l2.68-4.292-2.148-1.342a.844.844 0 0 1 .257-1.538l5.814-1.341a.844.844 0 0 1 1.012.634l1.342 5.813zm5.2-9.646 2.175 3.485-2.149 1.342a.844.844 0 0 0 .257 1.538l5.813 1.342a.844.844 0 0 0 1.012-.632l1.342-5.813a.844.844 0 0 0 -1.269-.905l-2.145 1.34-2.176-3.485a5.065 5.065 0 0 0 -8.586 0l-.947 1.517a.633.633 0 0 0 .2.872l1.79 1.118a.633.633 0 0 0 .872-.2l.947-1.516a1.689 1.689 0 0 1 2.861-.003zm11.291 11.714-1.451-2.324a.633.633 0 0 0 -.872-.2l-1.786 1.115a.633.633 0 0 0 -.2.872l1.454 2.326a1.69 1.69 0 0 1 -1.431 2.582h-5.063v-2.53a.844.844 0 0 0 -1.44-.6l-4.219 4.218a.844.844 0 0 0 0 1.193l4.219 4.218a.844.844 0 0 0 1.44-.6v-2.524h5.056a5.066 5.066 0 0 0 4.293-7.746z" fill="#df948c"/></svg>