<svg xmlns="http://www.w3.org/2000/svg" width="65.837" height="65.837" viewBox="0 0 65.837 65.837">
  <path id="Icon_awesome-recycle" data-name="Icon awesome-recycle" d="M23.732,33.678a2.059,2.059,0,0,1-3.095,2.208L15.4,32.612,8.858,43.079a4.122,4.122,0,0,0,3.488,6.3h6.685a1.543,1.543,0,0,1,1.543,1.543v5.144a1.543,1.543,0,0,1-1.543,1.543H12.359A12.352,12.352,0,0,1,1.891,38.72L8.426,28.255,3.189,24.983a2.059,2.059,0,0,1,.627-3.749l14.175-3.273A2.057,2.057,0,0,1,20.459,19.5l3.273,14.175ZM36.406,10.157l5.309,8.5-5.239,3.273a2.059,2.059,0,0,0,.627,3.749l14.175,3.273a2.057,2.057,0,0,0,2.467-1.542l3.273-14.175a2.059,2.059,0,0,0-3.095-2.208l-5.232,3.269L43.387,5.8a12.351,12.351,0,0,0-20.936,0l-2.31,3.7a1.543,1.543,0,0,0,.491,2.126l4.362,2.725a1.543,1.543,0,0,0,2.126-.491l2.31-3.7A4.119,4.119,0,0,1,36.406,10.157ZM63.945,38.72l-3.538-5.666a1.543,1.543,0,0,0-2.127-.491l-4.354,2.721a1.543,1.543,0,0,0-.491,2.126l3.544,5.672a4.122,4.122,0,0,1-3.489,6.3H41.148v-6.17a2.059,2.059,0,0,0-3.512-1.455L27.349,52.038a2.057,2.057,0,0,0,0,2.91L37.636,65.233a2.059,2.059,0,0,0,3.512-1.455V57.607H53.477A12.352,12.352,0,0,0,63.945,38.72Z" transform="translate(0 0)" fill="#f8f8f6"/>
</svg>
