<svg height="65.837" viewBox="0 0 65.837 65.837" width="65.837" xmlns="http://www.w3.org/2000/svg"><path d="m23.732 33.678a2.059 2.059 0 0 1 -3.095 2.208l-5.237-3.274-6.542 10.467a4.122 4.122 0 0 0 3.488 6.3h6.685a1.543 1.543 0 0 1 1.543 1.543v5.144a1.543 1.543 0 0 1 -1.543 1.543h-6.672a12.352 12.352 0 0 1 -10.468-18.889l6.535-10.465-5.237-3.272a2.059 2.059 0 0 1 .627-3.749l14.175-3.273a2.057 2.057 0 0 1 2.468 1.539l3.273 14.175zm12.674-23.521 5.309 8.5-5.239 3.273a2.059 2.059 0 0 0 .627 3.749l14.175 3.273a2.057 2.057 0 0 0 2.467-1.542l3.273-14.175a2.059 2.059 0 0 0 -3.095-2.208l-5.232 3.269-5.304-8.496a12.351 12.351 0 0 0 -20.936 0l-2.31 3.7a1.543 1.543 0 0 0 .491 2.126l4.362 2.725a1.543 1.543 0 0 0 2.126-.491l2.31-3.7a4.119 4.119 0 0 1 6.976-.003zm27.539 28.563-3.538-5.666a1.543 1.543 0 0 0 -2.127-.491l-4.354 2.721a1.543 1.543 0 0 0 -.491 2.126l3.544 5.672a4.122 4.122 0 0 1 -3.489 6.3h-12.342v-6.17a2.059 2.059 0 0 0 -3.512-1.455l-10.287 10.281a2.057 2.057 0 0 0 0 2.91l10.287 10.285a2.059 2.059 0 0 0 3.512-1.455v-6.171h12.329a12.352 12.352 0 0 0 10.468-18.887z" fill="#f8f8f6"/></svg>