<svg height="29.239" viewBox="0 0 36 29.239" width="36" xmlns="http://www.w3.org/2000/svg"><path d="m32.3 10.668c.023.32.023.64.023.959 0 9.754-7.424 20.992-20.992 20.992a20.85 20.85 0 0 1 -11.331-3.312 15.263 15.263 0 0 0 1.782.091 14.776 14.776 0 0 0 9.16-3.152 7.391 7.391 0 0 1 -6.9-5.117 9.3 9.3 0 0 0 1.393.114 7.8 7.8 0 0 0 1.942-.251 7.379 7.379 0 0 1 -5.916-7.241v-.091a7.431 7.431 0 0 0 3.339.94 7.389 7.389 0 0 1 -2.287-9.872 20.972 20.972 0 0 0 15.213 7.721 8.329 8.329 0 0 1 -.183-1.69 7.385 7.385 0 0 1 12.769-5.048 14.526 14.526 0 0 0 4.683-1.782 7.358 7.358 0 0 1 -3.244 4.066 14.791 14.791 0 0 0 4.249-1.142 15.86 15.86 0 0 1 -3.7 3.815z" fill="#f8f8f6" transform="translate(0 -3.381)"/></svg>